Coordinates
version=1
nRows=13
nColumns=40
inDegrees=yes

Units are S.I. units (second, meters, Newtons, ...)
Angles are in degrees.

endheader
time	pelvis_tilt	pelvis_list	pelvis_rotation	pelvis_tx	pelvis_ty	pelvis_tz	hip_flexion_r	hip_adduction_r	hip_rotation_r	knee_angle_r	knee_angle_r_beta	ankle_angle_r	subtalar_angle_r	mtp_angle_r	hip_flexion_l	hip_adduction_l	hip_rotation_l	knee_angle_l	knee_angle_l_beta	ankle_angle_l	subtalar_angle_l	mtp_angle_l	lumbar_extension	lumbar_bending	lumbar_rotation	arm_flex_r	arm_add_r	arm_rot_r	elbow_flex_r	pro_sup_r	wrist_flex_r	wrist_dev_r	arm_flex_l	arm_add_l	arm_rot_l	elbow_flex_l	pro_sup_l	wrist_flex_l	wrist_dev_l
      8.09500000	     -4.07168648	     -4.79250595	    -13.00879165	      1.02689899	      0.92863474	      0.46073718	     25.94752973	      0.38472007	     -5.42206070	     28.41596713	     28.41596713	      6.79628243	     -6.73460781	     -1.52718286	      6.15011994	     -4.44514276	    -13.98451480	     20.23928059	     20.23928059	     18.69559675	    -16.07795954	      2.98463635	    -10.91584328	      6.26446073	     -0.48456730	    -18.68587350	    -14.11530694	    -18.90826318	     27.26435960	     47.17071175	      0.00000000	      0.00000000	     28.55727884	    -20.26970398	     -9.43553879	     71.21012659	     47.49838902	      0.00000000	      0.00000000
      8.11407143	     -4.19095469	     -4.66220331	    -13.30507340	      1.02603753	      0.92802446	      0.46382734	     25.52203745	      0.49566489	     -6.35096082	     24.74115960	     24.74115960	      6.28914749	     -3.22360211	     -0.64160625	      5.59670721	     -4.43372821	    -14.47718456	     19.71834427	     19.71834427	     18.71307063	    -15.73990267	      2.46840763	    -10.98879483	      6.18237254	     -0.32631230	    -19.03492320	    -14.10917226	    -19.31826914	     27.45790611	     47.17148830	      0.00000000	      0.00000000	     29.31472900	    -20.48654860	     -9.55347563	     73.50231005	     47.56222801	      0.00000000	      0.00000000
      8.13314286	     -4.34006615	     -4.62737080	    -13.51212173	      1.02547827	      0.92701440	      0.46716425	     25.04740080	      0.84159643	     -6.86539972	     21.43156250	     21.43156250	      5.47851587	     -0.85436922	      0.35620519	      5.20573720	     -4.55492416	    -14.71462795	     19.51545409	     19.51545409	     18.88642805	    -15.66448985	      2.15118883	    -10.95169299	      6.27092587	     -0.22543463	    -19.18055852	    -14.22176780	    -19.48581771	     27.48325728	     47.17453621	      0.00000000	      0.00000000	     30.20081267	    -20.64242371	     -9.69382588	     74.76718804	     47.60454141	      0.00000000	      0.00000000
      8.15221429	     -4.36632666	     -4.46662038	    -13.68680930	      1.02548722	      0.92575799	      0.47049839	     24.70335190	      0.82747901	     -7.90025943	     19.19828016	     19.19828016	      5.12241243	      2.23935135	      1.55654856	      4.64819874	     -4.52115075	    -15.10016135	     19.25688393	     19.25688393	     18.96583325	    -15.39051463	      1.26166055	    -11.04017293	      6.20941151	     -0.21912710	    -19.10428703	    -14.31392780	    -20.02997849	     27.63002532	     47.18304782	      0.00000000	      0.00000000	     30.60107887	    -20.83131202	    -10.17615564	     77.10742192	     47.69765346	      0.00000000	      0.00000000
      8.17128571	     -4.41679862	     -4.38116745	    -13.80607883	      1.02593476	      0.92444663	      0.47415006	     24.38727515	      0.98207289	     -8.47101793	     17.56117794	     17.56117794	      4.61019302	      4.07233845	      2.21234936	      4.11031554	     -4.57875484	    -15.32937365	     19.07429625	     19.07429625	     19.16635047	    -15.24491775	      0.70221608	    -10.98538607	      6.25754741	     -0.20163949	    -18.83482789	    -14.41546236	    -20.43139964	     27.49606292	     47.19313085	      0.00000000	      0.00000000	     31.07313030	    -20.83812290	    -10.67628389	     78.65256814	     47.77848187	      0.00000000	      0.00000000
      8.19035714	     -4.44115975	     -4.36480573	    -13.89220603	      1.02683583	      0.92327464	      0.47809397	     24.09624603	      1.21425480	     -8.75904888	     16.60964044	     16.60964044	      4.08577263	      5.03968926	      2.30969613	      3.48714251	     -4.69947204	    -15.46930996	     18.87376827	     18.87376827	     19.47332492	    -15.11009526	      0.54084045	    -10.90381145	      6.39253351	      0.02123371	    -18.61007992	    -14.55073053	    -20.54168013	     27.42588924	     47.19766410	      0.00000000	      0.00000000	     31.64881710	    -20.72044349	    -10.88449489	     79.54338751	     47.81719317	      0.00000000	      0.00000000
      8.20942857	     -4.43455953	     -4.31340399	    -13.93663972	      1.02820898	      0.92225316	      0.48222094	     23.92417217	      1.34833571	     -8.93767605	     16.44126254	     16.44126254	      3.80556415	      5.53951760	      1.90512379	      2.75331114	     -4.76977591	    -15.60287418	     18.56463798	     18.56463798	     19.78630104	    -14.83404076	      0.45692813	    -10.80636488	      6.49158143	      0.21450731	    -18.28943641	    -14.67225175	    -20.64522585	     27.38390663	     47.20294014	      0.00000000	      0.00000000	     32.08362022	    -20.53601057	    -11.15053707	     80.43899452	     47.85773964	      0.00000000	      0.00000000
      8.22850000	     -4.43122705	     -4.27562828	    -13.93906993	      1.03002942	      0.92136495	      0.48663780	     23.68287263	      1.51827805	     -8.91028065	     16.50384555	     16.50384555	      2.69712665	      5.25860361	     -1.52461453	      1.99869329	     -4.89209499	    -15.81105850	     18.28216611	     18.28216611	     20.18890220	    -14.40135971	      0.66240761	    -10.65347678	      6.63928624	     -0.24221036	    -17.29222061	    -14.87914007	    -21.31289621	     26.82196810	     47.23751682	      0.00000000	      0.00000000	     31.46010357	    -20.58370429	    -12.60669162	     82.37430613	     48.00858809	      0.00000000	      0.00000000
      8.24757143	     -4.39758703	     -4.28035319	    -13.90545366	      1.03209926	      0.92081547	      0.49129981	     23.58963122	      1.69114171	     -8.72410171	     17.32420449	     17.32420449	      2.85893070	      4.73599543	     -2.14998706	      1.13807586	     -5.03140896	    -15.88238517	     17.87138573	     17.87138573	     20.39002827	    -14.14348750	      0.81670387	    -10.48371446	      6.80630271	     -0.01537872	    -16.94471105	    -15.01899337	    -21.36768329	     26.80064968	     47.23830447	      0.00000000	      0.00000000	     31.65666300	    -20.35830186	    -12.68631620	     82.76415554	     48.02553732	      0.00000000	      0.00000000
      8.26664286	     -4.34715349	     -4.26556391	    -13.82094681	      1.03438398	      0.92048926	      0.49617530	     23.48393654	      1.86085242	     -8.34932981	     18.36080476	     18.36080476	      3.10827999	      3.77711995	     -3.09417012	      0.28712084	     -5.18363757	    -15.97403558	     17.52286456	     17.52286456	     20.57244126	    -13.76734347	      1.12909214	    -10.30750136	      6.93925240	      0.11956264	    -16.51450745	    -15.14313947	    -21.47789093	     26.81731006	     47.24033783	      0.00000000	      0.00000000	     31.63959419	    -20.11889641	    -12.95970708	     83.30411407	     48.05723632	      0.00000000	      0.00000000
      8.28571429	     -4.39770165	     -4.39830872	    -13.61232845	      1.03677079	      0.92039044	      0.50121020	     23.13285339	      2.16351426	     -8.36591614	     18.96416550	     18.96416550	      3.61007825	      3.44830299	     -3.46399984	     -0.30860479	     -5.59003672	    -15.86651442	     17.48414972	     17.48414972	     20.57295446	    -13.69807976	      1.23944509	     -9.98537589	      7.22435967	      0.18656976	    -16.15935234	    -15.28257014	    -21.49770724	     26.93433174	     47.23917170	      0.00000000	      0.00000000	     31.58537602	    -19.91582876	    -12.93782920	     83.40282102	     48.05771203	      0.00000000	      0.00000000
      8.30478571	     -4.13382755	     -4.43471857	    -13.38657886	      1.03918474	      0.92065912	      0.50619135	     22.86684261	      2.28595045	     -8.09644226	     20.34633657	     20.34633657	      4.21074546	      2.36370139	     -4.10817288	     -1.15221833	     -5.85018275	    -15.84845567	     17.56411360	     17.56411360	     20.59896469	    -13.45090389	      1.48079369	    -10.10593766	      7.37923838	      0.28002353	    -15.71584288	    -15.51044338	    -21.58041492	     27.06978569	     47.24045982	      0.00000000	      0.00000000	     31.43780180	    -19.71312572	    -13.12300963	     83.70172588	     48.07587481	      0.00000000	      0.00000000
      8.32385714	     -3.99905537	     -4.40982996	    -13.11577428	      1.04145796	      0.92104555	      0.51129139	     22.48863784	      2.42528906	     -7.80507706	     21.21716405	     21.21716405	      4.82701129	      1.51090390	     -4.55829331	     -1.61832160	     -6.16129972	    -15.77763052	     18.01956329	     18.01956329	     20.50664227	    -13.33135790	      1.68098844	     -9.99185795	      7.43196043	      0.29562277	    -15.26118926	    -15.63555590	    -21.65821648	     27.23674996	     47.23964406	      0.00000000	      0.00000000	     31.23755812	    -19.48346468	    -13.28077800	     83.98270848	     48.09155538	      0.00000000	      0.00000000
